<svg xmlns="http://www.w3.org/2000/svg"><symbol id="mecha-stilts" viewBox="0 0 256 256"><path d="M80.3 165.1h12.9v12.72H80.3zm17 0h20.2v12.72H97.3zm24.2 0h12.9v12.72h-12.9zm17 0h20.2v12.72h-20.2zm33.9-43.8H83.6c1-26.1 20.8-40.4 44.4-40.4s43.4 14.3 44.4 40.4zm-9.7 43.8h12.9v12.72h-12.9zm-94.5-39.8h119.6v35.75H68.2z"/><path d="M128 6.4L21.5 67.9v122.9L128 252.3l106.5-61.5V67.9zm63.8 156.7a1.9 1.9 0 0 1-2 2h-10.1v12.7h10.1a2.2 2.2 0 0 1 2 2 2.2 2.2 0 0 1-2 2.1H66.2a2.2 2.2 0 0 1-2-2.1 2.2 2.2 0 0 1 2-2h10.1v-12.7H66.2a1.9 1.9 0 0 1-2-2v-39.8a1.9 1.9 0 0 1 2-2h13.3c1-28.7 22.4-44.5 48.5-44.5s47.5 15.8 48.5 44.5h13.3a1.9 1.9 0 0 1 2 2z"/><path fill="#fff" d="M176.3 147.3H127a2.2 2.2 0 0 0-2 2 2.2 2.2 0 0 0 2 2.1h49.3a2.2 2.2 0 0 0 2-2.1 2.2 2.2 0 0 0-2-2zm0 0H127a2.2 2.2 0 0 0-2 2 2.2 2.2 0 0 0 2 2.1h49.3a2.2 2.2 0 0 0 2-2.1 2.2 2.2 0 0 0-2-2zm0 0H127a2.2 2.2 0 0 0-2 2 2.2 2.2 0 0 0 2 2.1h49.3a2.2 2.2 0 0 0 2-2.1 2.2 2.2 0 0 0-2-2zm0 0H127a2.2 2.2 0 0 0-2 2 2.2 2.2 0 0 0 2 2.1h49.3a2.2 2.2 0 0 0 2-2.1 2.2 2.2 0 0 0-2-2zm0 0H127a2.2 2.2 0 0 0-2 2 2.2 2.2 0 0 0 2 2.1h49.3a2.2 2.2 0 0 0 2-2.1 2.2 2.2 0 0 0-2-2zm0 0H127a2.2 2.2 0 0 0-2 2 2.2 2.2 0 0 0 2 2.1h49.3a2.2 2.2 0 0 0 2-2.1 2.2 2.2 0 0 0-2-2zm0 0H127a2.2 2.2 0 0 0-2 2 2.2 2.2 0 0 0 2 2.1h49.3a2.2 2.2 0 0 0 2-2.1 2.2 2.2 0 0 0-2-2z"/></symbol><symbol id="space-bubbles" viewBox="0 0 256 256"><path d="M104.4 162.3l-34.1 18-2.9-4 17.8-21h13.3l5.9 7zm2.8 3.3l8.3 10.1H88l19.2-10.1zm45.1-10.3l-17 20.4h-14.5l-17-20.4h48.5zm-3.5 10.3l19.2 10.1h-27.4l8.2-10.1zm-61-28.9c-2-4.7-2.4-10.1-2.4-15.4a43.8 43.8 0 0 1 87.5 0 46.9 46.9 0 0 1-2.5 15.4zm-13.9 4h110.5v10.51H73.9zm96.9 14.6l17.8 21.1-2.8 3.9-34.4-18 6.1-7h13.3z"/><path d="M128 6.3L21.5 67.8v123L128 252.3l106.5-61.5v-123zm64.7 171.2l-4.7 6.6a2.1 2.1 0 0 1-2.6.6l-9.7-5H80.2l-9.7 5a2.4 2.4 0 0 1-2.7-.6l-4.6-6.6a2.2 2.2 0 0 1 .2-2.5l16.8-19.8h-8.3a1.9 1.9 0 0 1-2-2v-14.5a1.9 1.9 0 0 1 2-2h11.7a57.3 57.3 0 0 1-2.2-15.4 48 48 0 0 1 47.8-47.7c26.1 0 47.7 21.7 47.7 47.7a50.3 50.3 0 0 1-2.2 15.4h11.7a1.9 1.9 0 0 1 2 2v14.5a1.9 1.9 0 0 1-2 2h-10.3l16.6 19.8a2.3 2.3 0 0 1 0 2.5z"/></symbol><symbol id="super-domes" viewBox="0 0 256 256"><path d="M92.9 129.4H71.2C77.5 105 99.1 86.2 125 84.6zm5 0L127 88.6v40.8H97.9zm-25.2 19.2H127v22.42H72.7zm58.3 0h9.1v22.42H131zm13.2 0h41.2v22.42h-41.2zm42.6-19.2H131v-45a60.1 60.1 0 0 1 55.8 45zm-125.7 4h135.7v11.11H61.1z"/><path d="M129 4.6L22.5 66.1v123L129 250.6l106.5-61.5v-123zm87 144h-26.6V173a1.9 1.9 0 0 1-2 2H70.6a1.9 1.9 0 0 1-2-2v-24.4H42a2.2 2.2 0 0 1-2.1-2 2.3 2.3 0 0 1 2.1-2.1h15.1v-13.1a1.9 1.9 0 0 1 2-2H67a64 64 0 0 1 61.8-49.1c.2-.2.4-.2.8 0 29.9.2 54.7 21.2 61.4 49.1h7.9a1.9 1.9 0 0 1 2 2v13.1H216a2.3 2.3 0 0 1 2.1 2.1 2.2 2.2 0 0 1-2.1 2z"/></symbol></svg>